<?xml version="1.0" encoding="UTF-8" standalone="no"?>
<!DOCTYPE svg PUBLIC "-//W3C//DTD SVG 1.1//EN"
 "http://www.w3.org/Graphics/SVG/1.1/DTD/svg11.dtd">
<!-- Generated by graphviz version 9.0.0 (20230911.1827)
 -->
<!-- Title: StackOverflowJump Pages: 1 -->
<svg width="1427pt" height="636pt"
 viewBox="0.00 0.00 1426.88 636.38" xmlns="http://www.w3.org/2000/svg" xmlns:xlink="http://www.w3.org/1999/xlink">
<g id="graph0" class="graph" transform="scale(1 1) rotate(0) translate(4 632.38)">
<title>StackOverflowJump</title>
<polygon fill="white" stroke="none" points="-4,4 -4,-632.38 1422.88,-632.38 1422.88,4 -4,4"/>
<g id="clust1" class="cluster">
<title>cluster_src</title>
<polygon fill="lightgray" stroke="black" points="336.88,-171 336.88,-620.38 1122.88,-620.38 1122.88,-171 336.88,-171"/>
<text text-anchor="middle" x="729.88" y="-603.08" font-family="Times,serif" font-size="14.00">src/ &#45; Main Source Code</text>
</g>
<g id="clust2" class="cluster">
<title>cluster_core</title>
<polygon fill="#e8f4f8" stroke="black" points="344.88,-511.38 344.88,-587.88 967.88,-587.88 967.88,-511.38 344.88,-511.38"/>
<text text-anchor="middle" x="656.38" y="-570.58" font-family="Times,serif" font-size="14.00">Core/ (6 files)</text>
</g>
<g id="clust3" class="cluster">
<title>cluster_game</title>
<polygon fill="#ffe8cc" stroke="black" points="648.88,-179 648.88,-475.5 854.88,-475.5 854.88,-179 648.88,-179"/>
<text text-anchor="middle" x="751.88" y="-458.2" font-family="Times,serif" font-size="14.00">Game/ (4 files)</text>
</g>
<g id="clust4" class="cluster">
<title>cluster_render</title>
<polygon fill="#e8f8e8" stroke="black" points="862.88,-179 862.88,-360.5 984.88,-360.5 984.88,-179 862.88,-179"/>
<text text-anchor="middle" x="923.88" y="-343.2" font-family="Times,serif" font-size="14.00">Rendering/ (2 files)</text>
</g>
<g id="clust5" class="cluster">
<title>cluster_ui</title>
<polygon fill="#f8e8f8" stroke="black" points="404.88,-284 404.88,-360.5 640.88,-360.5 640.88,-284 404.88,-284"/>
<text text-anchor="middle" x="522.88" y="-343.2" font-family="Times,serif" font-size="14.00">UI/ (2 files)</text>
</g>
<g id="clust6" class="cluster">
<title>cluster_score</title>
<polygon fill="#fff8cc" stroke="black" points="992.88,-284 992.88,-360.5 1114.88,-360.5 1114.88,-284 992.88,-284"/>
<text text-anchor="middle" x="1053.88" y="-343.2" font-family="Times,serif" font-size="14.00">Scoreboard/ (1 file)</text>
</g>
<g id="clust7" class="cluster">
<title>cluster_utils</title>
<polygon fill="#cce8ff" stroke="black" points="344.88,-179 344.88,-255.5 640.88,-255.5 640.88,-179 344.88,-179"/>
<text text-anchor="middle" x="492.88" y="-238.2" font-family="Times,serif" font-size="14.00">Utils/ (3 files)</text>
</g>
<g id="clust8" class="cluster">
<title>cluster_web</title>
<polygon fill="#ffe0e0" stroke="black" points="1130.88,-8 1130.88,-255.5 1322.88,-255.5 1322.88,-8 1130.88,-8"/>
<text text-anchor="middle" x="1226.88" y="-238.2" font-family="Times,serif" font-size="14.00">web/scoreboard/ &#45; Python Flask</text>
</g>
<g id="clust9" class="cluster">
<title>cluster_cicd</title>
<polygon fill="#e0ffe0" stroke="black" points="1130.88,-511.38 1130.88,-587.88 1410.88,-587.88 1410.88,-511.38 1130.88,-511.38"/>
<text text-anchor="middle" x="1270.88" y="-570.58" font-family="Times,serif" font-size="14.00">.github/workflows/ &#45; CI/CD</text>
</g>
<!-- project -->
<g id="node1" class="node">
<title>project</title>
<path fill="#4a90e2" stroke="black" d="M186.62,-562.75C186.62,-562.75 85.12,-562.75 85.12,-562.75 79.12,-562.75 73.12,-556.75 73.12,-550.75 73.12,-550.75 73.12,-524 73.12,-524 73.12,-518 79.12,-512 85.12,-512 85.12,-512 186.62,-512 186.62,-512 192.62,-512 198.62,-518 198.62,-524 198.62,-524 198.62,-550.75 198.62,-550.75 198.62,-556.75 192.62,-562.75 186.62,-562.75"/>
<text text-anchor="middle" x="135.88" y="-547.35" font-family="Arial" font-size="12.00" fill="white">StackOverflow Jump</text>
<text text-anchor="middle" x="135.88" y="-533.1" font-family="Arial" font-size="12.00" fill="white">C# Console Game</text>
<text text-anchor="middle" x="135.88" y="-518.85" font-family="Arial" font-size="12.00" fill="white">.NET 9</text>
</g>
<!-- config -->
<g id="node29" class="node">
<title>config</title>
<polygon fill="#ffffe0" stroke="black" points="67.75,-453 0,-453 0,-397 73.75,-397 73.75,-447 67.75,-453"/>
<polyline fill="none" stroke="black" points="67.75,-453 67.75,-447"/>
<polyline fill="none" stroke="black" points="73.75,-447 67.75,-447"/>
<text text-anchor="middle" x="36.88" y="-439.5" font-family="Arial" font-size="10.00">Configuration</text>
<text text-anchor="middle" x="36.88" y="-427.5" font-family="Arial" font-size="10.00">• .csproj</text>
<text text-anchor="middle" x="36.88" y="-415.5" font-family="Arial" font-size="10.00">• Dockerfile</text>
<text text-anchor="middle" x="36.88" y="-403.5" font-family="Arial" font-size="10.00">• fly.toml</text>
</g>
<!-- project&#45;&gt;config -->
<g id="edge4" class="edge">
<title>project&#45;&gt;config</title>
<path fill="none" stroke="black" d="M113.66,-511.6C100.45,-496.88 83.48,-477.96 68.85,-461.65"/>
<polygon fill="black" stroke="black" points="71.74,-459.63 62.46,-454.53 66.53,-464.31 71.74,-459.63"/>
</g>
<!-- cluster_src -->
<g id="node30" class="node">
<title>cluster_src</title>
<path fill="lightblue" stroke="black" d="M143.88,-443C143.88,-443 103.88,-443 103.88,-443 97.88,-443 91.88,-437 91.88,-431 91.88,-431 91.88,-419 91.88,-419 91.88,-413 97.88,-407 103.88,-407 103.88,-407 143.88,-407 143.88,-407 149.88,-407 155.88,-413 155.88,-419 155.88,-419 155.88,-431 155.88,-431 155.88,-437 149.88,-443 143.88,-443"/>
<text text-anchor="middle" x="123.88" y="-421.5" font-family="Arial" font-size="10.00">cluster_src</text>
</g>
<!-- project&#45;&gt;cluster_src -->
<g id="edge1" class="edge">
<title>project&#45;&gt;cluster_src</title>
<path fill="none" stroke="black" d="M133.18,-511.6C131.35,-494.77 128.92,-472.44 127.01,-454.81"/>
<polygon fill="black" stroke="black" points="130.5,-454.55 125.94,-444.99 123.54,-455.31 130.5,-454.55"/>
</g>
<!-- cluster_web -->
<g id="node31" class="node">
<title>cluster_web</title>
<path fill="lightblue" stroke="black" d="M230.12,-443C230.12,-443 185.62,-443 185.62,-443 179.62,-443 173.62,-437 173.62,-431 173.62,-431 173.62,-419 173.62,-419 173.62,-413 179.62,-407 185.62,-407 185.62,-407 230.12,-407 230.12,-407 236.12,-407 242.12,-413 242.12,-419 242.12,-419 242.12,-431 242.12,-431 242.12,-437 236.12,-443 230.12,-443"/>
<text text-anchor="middle" x="207.88" y="-421.5" font-family="Arial" font-size="10.00">cluster_web</text>
</g>
<!-- project&#45;&gt;cluster_web -->
<g id="edge2" class="edge">
<title>project&#45;&gt;cluster_web</title>
<path fill="none" stroke="black" d="M152.03,-511.6C163.38,-494.2 178.56,-470.93 190.23,-453.05"/>
<polygon fill="black" stroke="black" points="193.11,-455.04 195.65,-444.75 187.25,-451.21 193.11,-455.04"/>
</g>
<!-- cluster_cicd -->
<g id="node32" class="node">
<title>cluster_cicd</title>
<path fill="lightblue" stroke="black" d="M317.12,-443C317.12,-443 272.62,-443 272.62,-443 266.62,-443 260.62,-437 260.62,-431 260.62,-431 260.62,-419 260.62,-419 260.62,-413 266.62,-407 272.62,-407 272.62,-407 317.12,-407 317.12,-407 323.12,-407 329.12,-413 329.12,-419 329.12,-419 329.12,-431 329.12,-431 329.12,-437 323.12,-443 317.12,-443"/>
<text text-anchor="middle" x="294.88" y="-421.5" font-family="Arial" font-size="10.00">cluster_cicd</text>
</g>
<!-- project&#45;&gt;cluster_cicd -->
<g id="edge3" class="edge">
<title>project&#45;&gt;cluster_cicd</title>
<path fill="none" stroke="black" d="M192.15,-511.65C211.67,-501.79 233.11,-489.45 250.88,-475.5 259.42,-468.79 267.65,-460.3 274.63,-452.25"/>
<polygon fill="black" stroke="black" points="277.26,-454.55 280.97,-444.63 271.88,-450.08 277.26,-454.55"/>
</g>
<!-- core_program -->
<g id="node2" class="node">
<title>core_program</title>
<path fill="lightblue" stroke="black" d="M862,-555.38C862,-555.38 819.75,-555.38 819.75,-555.38 813.75,-555.38 807.75,-549.38 807.75,-543.38 807.75,-543.38 807.75,-531.38 807.75,-531.38 807.75,-525.38 813.75,-519.38 819.75,-519.38 819.75,-519.38 862,-519.38 862,-519.38 868,-519.38 874,-525.38 874,-531.38 874,-531.38 874,-543.38 874,-543.38 874,-549.38 868,-555.38 862,-555.38"/>
<text text-anchor="middle" x="840.88" y="-539.88" font-family="Arial" font-size="10.00">Program.cs</text>
<text text-anchor="middle" x="840.88" y="-527.88" font-family="Arial" font-size="10.00">Entry Point</text>
</g>
<!-- game_game -->
<g id="node8" class="node">
<title>game_game</title>
<path fill="lightblue" stroke="black" d="M834.5,-443C834.5,-443 783.25,-443 783.25,-443 777.25,-443 771.25,-437 771.25,-431 771.25,-431 771.25,-419 771.25,-419 771.25,-413 777.25,-407 783.25,-407 783.25,-407 834.5,-407 834.5,-407 840.5,-407 846.5,-413 846.5,-419 846.5,-419 846.5,-431 846.5,-431 846.5,-437 840.5,-443 834.5,-443"/>
<text text-anchor="middle" x="808.88" y="-427.5" font-family="Arial" font-size="10.00">Game.cs</text>
<text text-anchor="middle" x="808.88" y="-415.5" font-family="Arial" font-size="10.00">State &amp; Logic</text>
</g>
<!-- core_program&#45;&gt;game_game -->
<g id="edge5" class="edge">
<title>core_program&#45;&gt;game_game</title>
<path fill="none" stroke="black" d="M835.88,-519.13C830.86,-501.82 823.04,-474.85 817.1,-454.38"/>
<polygon fill="black" stroke="black" points="820.51,-453.57 814.37,-444.94 813.79,-455.52 820.51,-453.57"/>
<text text-anchor="middle" x="835.88" y="-485.45" font-family="Arial" font-size="9.00">runs</text>
</g>
<!-- core_input -->
<g id="node3" class="node">
<title>core_input</title>
<path fill="lightblue" stroke="black" d="M948.12,-555.38C948.12,-555.38 903.62,-555.38 903.62,-555.38 897.62,-555.38 891.62,-549.38 891.62,-543.38 891.62,-543.38 891.62,-531.38 891.62,-531.38 891.62,-525.38 897.62,-519.38 903.62,-519.38 903.62,-519.38 948.12,-519.38 948.12,-519.38 954.12,-519.38 960.12,-525.38 960.12,-531.38 960.12,-531.38 960.12,-543.38 960.12,-543.38 960.12,-549.38 954.12,-555.38 948.12,-555.38"/>
<text text-anchor="middle" x="925.88" y="-539.88" font-family="Arial" font-size="10.00">Input.cs</text>
<text text-anchor="middle" x="925.88" y="-527.88" font-family="Arial" font-size="10.00">Async Input</text>
</g>
<!-- core_input&#45;&gt;game_game -->
<g id="edge6" class="edge">
<title>core_input&#45;&gt;game_game</title>
<path fill="none" stroke="black" d="M907.34,-518.89C888,-500.64 857.49,-471.86 835.56,-451.18"/>
<polygon fill="black" stroke="black" points="838.1,-448.76 828.43,-444.45 833.3,-453.85 838.1,-448.76"/>
<text text-anchor="middle" x="905.75" y="-485.45" font-family="Arial" font-size="9.00">provides input</text>
</g>
<!-- core_console -->
<g id="node4" class="node">
<title>core_console</title>
<path fill="lightblue" stroke="black" d="M777.75,-555.38C777.75,-555.38 716,-555.38 716,-555.38 710,-555.38 704,-549.38 704,-543.38 704,-543.38 704,-531.38 704,-531.38 704,-525.38 710,-519.38 716,-519.38 716,-519.38 777.75,-519.38 777.75,-519.38 783.75,-519.38 789.75,-525.38 789.75,-531.38 789.75,-531.38 789.75,-543.38 789.75,-543.38 789.75,-549.38 783.75,-555.38 777.75,-555.38"/>
<text text-anchor="middle" x="746.88" y="-539.88" font-family="Arial" font-size="10.00">ConsoleSafe.cs</text>
<text text-anchor="middle" x="746.88" y="-527.88" font-family="Arial" font-size="10.00">Safe Console</text>
</g>
<!-- core_diag -->
<g id="node5" class="node">
<title>core_diag</title>
<path fill="lightblue" stroke="black" d="M673.5,-555.38C673.5,-555.38 616.25,-555.38 616.25,-555.38 610.25,-555.38 604.25,-549.38 604.25,-543.38 604.25,-543.38 604.25,-531.38 604.25,-531.38 604.25,-525.38 610.25,-519.38 616.25,-519.38 616.25,-519.38 673.5,-519.38 673.5,-519.38 679.5,-519.38 685.5,-525.38 685.5,-531.38 685.5,-531.38 685.5,-543.38 685.5,-543.38 685.5,-549.38 679.5,-555.38 673.5,-555.38"/>
<text text-anchor="middle" x="644.88" y="-539.88" font-family="Arial" font-size="10.00">Diagnostics.cs</text>
<text text-anchor="middle" x="644.88" y="-527.88" font-family="Arial" font-size="10.00">Debug Logging</text>
</g>
<!-- core_term -->
<g id="node6" class="node">
<title>core_term</title>
<path fill="lightblue" stroke="black" d="M574.5,-555.38C574.5,-555.38 481.25,-555.38 481.25,-555.38 475.25,-555.38 469.25,-549.38 469.25,-543.38 469.25,-543.38 469.25,-531.38 469.25,-531.38 469.25,-525.38 475.25,-519.38 481.25,-519.38 481.25,-519.38 574.5,-519.38 574.5,-519.38 580.5,-519.38 586.5,-525.38 586.5,-531.38 586.5,-531.38 586.5,-543.38 586.5,-543.38 586.5,-549.38 580.5,-555.38 574.5,-555.38"/>
<text text-anchor="middle" x="527.88" y="-539.88" font-family="Arial" font-size="10.00">TerminalCapabilities.cs</text>
<text text-anchor="middle" x="527.88" y="-527.88" font-family="Arial" font-size="10.00">Feature Detection</text>
</g>
<!-- core_time -->
<g id="node7" class="node">
<title>core_time</title>
<path fill="lightblue" stroke="black" d="M438.75,-555.38C438.75,-555.38 365,-555.38 365,-555.38 359,-555.38 353,-549.38 353,-543.38 353,-543.38 353,-531.38 353,-531.38 353,-525.38 359,-519.38 365,-519.38 365,-519.38 438.75,-519.38 438.75,-519.38 444.75,-519.38 450.75,-525.38 450.75,-531.38 450.75,-531.38 450.75,-543.38 450.75,-543.38 450.75,-549.38 444.75,-555.38 438.75,-555.38"/>
<text text-anchor="middle" x="401.88" y="-539.88" font-family="Arial" font-size="10.00">TimeFormatting.cs</text>
<text text-anchor="middle" x="401.88" y="-527.88" font-family="Arial" font-size="10.00">Time Utils</text>
</g>
<!-- game_world -->
<g id="node9" class="node">
<title>game_world</title>
<path fill="lightblue" stroke="black" d="M762,-328C762,-328 731.75,-328 731.75,-328 725.75,-328 719.75,-322 719.75,-316 719.75,-316 719.75,-304 719.75,-304 719.75,-298 725.75,-292 731.75,-292 731.75,-292 762,-292 762,-292 768,-292 774,-298 774,-304 774,-304 774,-316 774,-316 774,-322 768,-328 762,-328"/>
<text text-anchor="middle" x="746.88" y="-312.5" font-family="Arial" font-size="10.00">World.cs</text>
<text text-anchor="middle" x="746.88" y="-300.5" font-family="Arial" font-size="10.00">Physics</text>
</g>
<!-- game_game&#45;&gt;game_world -->
<g id="edge7" class="edge">
<title>game_game&#45;&gt;game_world</title>
<path fill="none" stroke="black" d="M799.46,-406.84C789.49,-388.67 773.61,-359.72 761.91,-338.39"/>
<polygon fill="black" stroke="black" points="764.99,-336.73 757.11,-329.65 758.85,-340.1 764.99,-336.73"/>
<text text-anchor="middle" x="799.38" y="-370.45" font-family="Arial" font-size="9.00">updates</text>
</g>
<!-- render_renderer -->
<g id="node12" class="node">
<title>render_renderer</title>
<path fill="lightblue" stroke="black" d="M952.88,-328C952.88,-328 882.88,-328 882.88,-328 876.88,-328 870.88,-322 870.88,-316 870.88,-316 870.88,-304 870.88,-304 870.88,-298 876.88,-292 882.88,-292 882.88,-292 952.88,-292 952.88,-292 958.88,-292 964.88,-298 964.88,-304 964.88,-304 964.88,-316 964.88,-316 964.88,-322 958.88,-328 952.88,-328"/>
<text text-anchor="middle" x="917.88" y="-312.5" font-family="Arial" font-size="10.00">Renderer.cs</text>
<text text-anchor="middle" x="917.88" y="-300.5" font-family="Arial" font-size="10.00">Screen Rendering</text>
</g>
<!-- game_game&#45;&gt;render_renderer -->
<g id="edge10" class="edge">
<title>game_game&#45;&gt;render_renderer</title>
<path fill="none" stroke="black" d="M825.43,-406.84C843.52,-388.09 872.67,-357.86 893.4,-336.37"/>
<polygon fill="black" stroke="black" points="895.69,-339.04 900.11,-329.41 890.65,-334.18 895.69,-339.04"/>
<text text-anchor="middle" x="872.25" y="-370.45" font-family="Arial" font-size="9.00">draws</text>
</g>
<!-- ui_prompt -->
<g id="node14" class="node">
<title>ui_prompt</title>
<path fill="lightblue" stroke="black" d="M490.62,-328C490.62,-328 425.12,-328 425.12,-328 419.12,-328 413.12,-322 413.12,-316 413.12,-316 413.12,-304 413.12,-304 413.12,-298 419.12,-292 425.12,-292 425.12,-292 490.62,-292 490.62,-292 496.62,-292 502.62,-298 502.62,-304 502.62,-304 502.62,-316 502.62,-316 502.62,-322 496.62,-328 490.62,-328"/>
<text text-anchor="middle" x="457.88" y="-312.5" font-family="Arial" font-size="10.00">InitialsPrompt.cs</text>
<text text-anchor="middle" x="457.88" y="-300.5" font-family="Arial" font-size="10.00">Name Entry</text>
</g>
<!-- game_game&#45;&gt;ui_prompt -->
<g id="edge12" class="edge">
<title>game_game&#45;&gt;ui_prompt</title>
<path fill="none" stroke="black" d="M771.12,-422.25C712.55,-418.18 597.63,-404.74 511.88,-360.5 500.23,-354.49 489.2,-345.3 480.19,-336.46"/>
<polygon fill="black" stroke="black" points="482.73,-334.05 473.27,-329.29 477.7,-338.92 482.73,-334.05"/>
<text text-anchor="middle" x="562" y="-370.45" font-family="Arial" font-size="9.00">shows</text>
</g>
<!-- ui_leader -->
<g id="node15" class="node">
<title>ui_leader</title>
<path fill="lightblue" stroke="black" d="M621.25,-328C621.25,-328 532.5,-328 532.5,-328 526.5,-328 520.5,-322 520.5,-316 520.5,-316 520.5,-304 520.5,-304 520.5,-298 526.5,-292 532.5,-292 532.5,-292 621.25,-292 621.25,-292 627.25,-292 633.25,-298 633.25,-304 633.25,-304 633.25,-316 633.25,-316 633.25,-322 627.25,-328 621.25,-328"/>
<text text-anchor="middle" x="576.88" y="-312.5" font-family="Arial" font-size="10.00">LeaderboardViewer.cs</text>
<text text-anchor="middle" x="576.88" y="-300.5" font-family="Arial" font-size="10.00">Score Display</text>
</g>
<!-- game_game&#45;&gt;ui_leader -->
<g id="edge13" class="edge">
<title>game_game&#45;&gt;ui_leader</title>
<path fill="none" stroke="black" d="M770.84,-412.41C736.79,-401.3 686.02,-382.94 644.88,-360.5 631.76,-353.34 618.26,-344 606.78,-335.36"/>
<polygon fill="black" stroke="black" points="608.92,-332.59 598.87,-329.25 604.65,-338.13 608.92,-332.59"/>
<text text-anchor="middle" x="695.75" y="-370.45" font-family="Arial" font-size="9.00">displays</text>
</g>
<!-- score_board -->
<g id="node16" class="node">
<title>score_board</title>
<path fill="lightblue" stroke="black" d="M1082.12,-328C1082.12,-328 1025.62,-328 1025.62,-328 1019.62,-328 1013.62,-322 1013.62,-316 1013.62,-316 1013.62,-304 1013.62,-304 1013.62,-298 1019.62,-292 1025.62,-292 1025.62,-292 1082.12,-292 1082.12,-292 1088.12,-292 1094.12,-298 1094.12,-304 1094.12,-304 1094.12,-316 1094.12,-316 1094.12,-322 1088.12,-328 1082.12,-328"/>
<text text-anchor="middle" x="1053.88" y="-312.5" font-family="Arial" font-size="10.00">Scoreboard.cs</text>
<text text-anchor="middle" x="1053.88" y="-300.5" font-family="Arial" font-size="10.00">SQLite + Sync</text>
</g>
<!-- game_game&#45;&gt;score_board -->
<g id="edge14" class="edge">
<title>game_game&#45;&gt;score_board</title>
<path fill="none" stroke="black" d="M846.85,-414.34C884.3,-403.96 942.51,-385.53 988.88,-360.5 1001.75,-353.55 1014.8,-344.17 1025.79,-335.44"/>
<polygon fill="black" stroke="black" points="1027.79,-338.32 1033.32,-329.29 1023.36,-332.9 1027.79,-338.32"/>
<text text-anchor="middle" x="985.25" y="-370.45" font-family="Arial" font-size="9.00">records</text>
</g>
<!-- game_entities -->
<g id="node10" class="node">
<title>game_entities</title>
<path fill="lightblue" stroke="black" d="M743.12,-223C743.12,-223 668.62,-223 668.62,-223 662.62,-223 656.62,-217 656.62,-211 656.62,-211 656.62,-199 656.62,-199 656.62,-193 662.62,-187 668.62,-187 668.62,-187 743.12,-187 743.12,-187 749.12,-187 755.12,-193 755.12,-199 755.12,-199 755.12,-211 755.12,-211 755.12,-217 749.12,-223 743.12,-223"/>
<text text-anchor="middle" x="705.88" y="-207.5" font-family="Arial" font-size="10.00">Entities.cs</text>
<text text-anchor="middle" x="705.88" y="-195.5" font-family="Arial" font-size="10.00">Player &amp; Platforms</text>
</g>
<!-- game_world&#45;&gt;game_entities -->
<g id="edge8" class="edge">
<title>game_world&#45;&gt;game_entities</title>
<path fill="none" stroke="black" d="M739.92,-291.53C733.64,-275.75 724.29,-252.25 716.97,-233.88"/>
<polygon fill="black" stroke="black" points="720.24,-232.62 713.29,-224.62 713.73,-235.21 720.24,-232.62"/>
<text text-anchor="middle" x="751" y="-265.45" font-family="Arial" font-size="9.00">manages</text>
</g>
<!-- game_spawner -->
<g id="node11" class="node">
<title>game_spawner</title>
<path fill="lightblue" stroke="black" d="M834.75,-223C834.75,-223 785,-223 785,-223 779,-223 773,-217 773,-211 773,-211 773,-199 773,-199 773,-193 779,-187 785,-187 785,-187 834.75,-187 834.75,-187 840.75,-187 846.75,-193 846.75,-199 846.75,-199 846.75,-211 846.75,-211 846.75,-217 840.75,-223 834.75,-223"/>
<text text-anchor="middle" x="809.88" y="-207.5" font-family="Arial" font-size="10.00">Spawner.cs</text>
<text text-anchor="middle" x="809.88" y="-195.5" font-family="Arial" font-size="10.00">Platform Gen</text>
</g>
<!-- game_world&#45;&gt;game_spawner -->
<g id="edge9" class="edge">
<title>game_world&#45;&gt;game_spawner</title>
<path fill="none" stroke="black" d="M761.21,-291.62C765.49,-286.13 770.05,-279.94 773.88,-274 782.24,-261.01 790.39,-245.89 796.81,-233.2"/>
<polygon fill="black" stroke="black" points="799.78,-235.09 801.1,-224.58 793.52,-231.97 799.78,-235.09"/>
<text text-anchor="middle" x="788.62" y="-265.45" font-family="Arial" font-size="9.00">uses</text>
</g>
<!-- utils_math -->
<g id="node18" class="node">
<title>utils_math</title>
<path fill="lightblue" stroke="black" d="M620.38,-223C620.38,-223 559.38,-223 559.38,-223 553.38,-223 547.38,-217 547.38,-211 547.38,-211 547.38,-199 547.38,-199 547.38,-193 553.38,-187 559.38,-187 559.38,-187 620.38,-187 620.38,-187 626.38,-187 632.38,-193 632.38,-199 632.38,-199 632.38,-211 632.38,-211 632.38,-217 626.38,-223 620.38,-223"/>
<text text-anchor="middle" x="589.88" y="-207.5" font-family="Arial" font-size="10.00">MathHelpers.cs</text>
<text text-anchor="middle" x="589.88" y="-195.5" font-family="Arial" font-size="10.00">Math Utils</text>
</g>
<!-- game_world&#45;&gt;utils_math -->
<g id="edge22" class="edge">
<title>game_world&#45;&gt;utils_math</title>
<path fill="none" stroke="black" d="M719.4,-296.89C698.24,-287.03 668.67,-272.06 644.88,-255.5 634.49,-248.27 623.95,-239.28 614.91,-230.94"/>
<polygon fill="black" stroke="black" points="617.54,-228.61 607.87,-224.28 612.73,-233.69 617.54,-228.61"/>
<text text-anchor="middle" x="683.62" y="-265.45" font-family="Arial" font-size="9.00">uses</text>
</g>
<!-- render_glyph -->
<g id="node13" class="node">
<title>render_glyph</title>
<path fill="lightblue" stroke="black" d="M947.62,-223C947.62,-223 888.12,-223 888.12,-223 882.12,-223 876.12,-217 876.12,-211 876.12,-211 876.12,-199 876.12,-199 876.12,-193 882.12,-187 888.12,-187 888.12,-187 947.62,-187 947.62,-187 953.62,-187 959.62,-193 959.62,-199 959.62,-199 959.62,-211 959.62,-211 959.62,-217 953.62,-223 947.62,-223"/>
<text text-anchor="middle" x="917.88" y="-207.5" font-family="Arial" font-size="10.00">GlyphLibrary.cs</text>
<text text-anchor="middle" x="917.88" y="-195.5" font-family="Arial" font-size="10.00">ASCII Art</text>
</g>
<!-- render_renderer&#45;&gt;render_glyph -->
<g id="edge11" class="edge">
<title>render_renderer&#45;&gt;render_glyph</title>
<path fill="none" stroke="black" d="M917.88,-291.53C917.88,-275.97 917.88,-252.92 917.88,-234.66"/>
<polygon fill="black" stroke="black" points="921.38,-234.73 917.88,-224.73 914.38,-234.73 921.38,-234.73"/>
<text text-anchor="middle" x="927.62" y="-265.45" font-family="Arial" font-size="9.00">uses</text>
</g>
<!-- utils_prof -->
<g id="node17" class="node">
<title>utils_prof</title>
<path fill="lightblue" stroke="black" d="M517,-223C517,-223 450.75,-223 450.75,-223 444.75,-223 438.75,-217 438.75,-211 438.75,-211 438.75,-199 438.75,-199 438.75,-193 444.75,-187 450.75,-187 450.75,-187 517,-187 517,-187 523,-187 529,-193 529,-199 529,-199 529,-211 529,-211 529,-217 523,-223 517,-223"/>
<text text-anchor="middle" x="483.88" y="-207.5" font-family="Arial" font-size="10.00">ProfanityFilter.cs</text>
<text text-anchor="middle" x="483.88" y="-195.5" font-family="Arial" font-size="10.00">Name Validation</text>
</g>
<!-- ui_prompt&#45;&gt;utils_prof -->
<g id="edge21" class="edge">
<title>ui_prompt&#45;&gt;utils_prof</title>
<path fill="none" stroke="black" d="M462.29,-291.53C466.25,-275.82 472.14,-252.47 476.77,-234.14"/>
<polygon fill="black" stroke="black" points="480.11,-235.23 479.16,-224.68 473.32,-233.52 480.11,-235.23"/>
<text text-anchor="middle" x="479.75" y="-265.45" font-family="Arial" font-size="9.00">filters</text>
</g>
<!-- web_webhook -->
<g id="node21" class="node">
<title>web_webhook</title>
<path fill="lightblue" stroke="black" d="M1196.12,-223C1196.12,-223 1151.62,-223 1151.62,-223 1145.62,-223 1139.62,-217 1139.62,-211 1139.62,-211 1139.62,-199 1139.62,-199 1139.62,-193 1145.62,-187 1151.62,-187 1151.62,-187 1196.12,-187 1196.12,-187 1202.12,-187 1208.12,-193 1208.12,-199 1208.12,-199 1208.12,-211 1208.12,-211 1208.12,-217 1202.12,-223 1196.12,-223"/>
<text text-anchor="middle" x="1173.88" y="-207.5" font-family="Arial" font-size="10.00">webhook.py</text>
<text text-anchor="middle" x="1173.88" y="-195.5" font-family="Arial" font-size="10.00">Score API</text>
</g>
<!-- score_board&#45;&gt;web_webhook -->
<g id="edge15" class="edge">
<title>score_board&#45;&gt;web_webhook</title>
<path fill="none" stroke="black" stroke-dasharray="5,2" d="M1074.23,-291.53C1093.74,-274.78 1123.38,-249.34 1145.26,-230.56"/>
<polygon fill="black" stroke="black" points="1147.36,-233.37 1152.67,-224.2 1142.8,-228.06 1147.36,-233.37"/>
<text text-anchor="middle" x="1122.38" y="-265.45" font-family="Arial" font-size="9.00">syncs to</text>
</g>
<!-- utils_trace -->
<g id="node19" class="node">
<title>utils_trace</title>
<path fill="lightblue" stroke="black" d="M408.38,-223C408.38,-223 365.38,-223 365.38,-223 359.38,-223 353.38,-217 353.38,-211 353.38,-211 353.38,-199 353.38,-199 353.38,-193 359.38,-187 365.38,-187 365.38,-187 408.38,-187 408.38,-187 414.38,-187 420.38,-193 420.38,-199 420.38,-199 420.38,-211 420.38,-211 420.38,-217 414.38,-223 408.38,-223"/>
<text text-anchor="middle" x="386.88" y="-207.5" font-family="Arial" font-size="10.00">Tracing.cs</text>
<text text-anchor="middle" x="386.88" y="-195.5" font-family="Arial" font-size="10.00">BG Logging</text>
</g>
<!-- web_init -->
<g id="node20" class="node">
<title>web_init</title>
<path fill="lightblue" stroke="black" d="M1289.5,-223C1289.5,-223 1250.25,-223 1250.25,-223 1244.25,-223 1238.25,-217 1238.25,-211 1238.25,-211 1238.25,-199 1238.25,-199 1238.25,-193 1244.25,-187 1250.25,-187 1250.25,-187 1289.5,-187 1289.5,-187 1295.5,-187 1301.5,-193 1301.5,-199 1301.5,-199 1301.5,-211 1301.5,-211 1301.5,-217 1295.5,-223 1289.5,-223"/>
<text text-anchor="middle" x="1269.88" y="-207.5" font-family="Arial" font-size="10.00">__init__.py</text>
<text text-anchor="middle" x="1269.88" y="-195.5" font-family="Arial" font-size="10.00">Flask Init</text>
</g>
<!-- web_db -->
<g id="node22" class="node">
<title>web_db</title>
<path fill="lightblue" stroke="black" d="M1196.5,-134.5C1196.5,-134.5 1151.25,-134.5 1151.25,-134.5 1145.25,-134.5 1139.25,-128.5 1139.25,-122.5 1139.25,-122.5 1139.25,-110.5 1139.25,-110.5 1139.25,-104.5 1145.25,-98.5 1151.25,-98.5 1151.25,-98.5 1196.5,-98.5 1196.5,-98.5 1202.5,-98.5 1208.5,-104.5 1208.5,-110.5 1208.5,-110.5 1208.5,-122.5 1208.5,-122.5 1208.5,-128.5 1202.5,-134.5 1196.5,-134.5"/>
<text text-anchor="middle" x="1173.88" y="-119" font-family="Arial" font-size="10.00">database.py</text>
<text text-anchor="middle" x="1173.88" y="-107" font-family="Arial" font-size="10.00">DB Ops</text>
</g>
<!-- web_webhook&#45;&gt;web_db -->
<g id="edge16" class="edge">
<title>web_webhook&#45;&gt;web_db</title>
<path fill="none" stroke="black" d="M1173.88,-186.91C1173.88,-175.26 1173.88,-159.55 1173.88,-146.02"/>
<polygon fill="black" stroke="black" points="1177.38,-146.36 1173.88,-136.36 1170.38,-146.36 1177.38,-146.36"/>
<text text-anchor="middle" x="1186.25" y="-154.45" font-family="Arial" font-size="9.00">stores</text>
</g>
<!-- web_html -->
<g id="node24" class="node">
<title>web_html</title>
<path fill="lightblue" stroke="black" d="M1302.88,-134.5C1302.88,-134.5 1238.88,-134.5 1238.88,-134.5 1232.88,-134.5 1226.88,-128.5 1226.88,-122.5 1226.88,-122.5 1226.88,-110.5 1226.88,-110.5 1226.88,-104.5 1232.88,-98.5 1238.88,-98.5 1238.88,-98.5 1302.88,-98.5 1302.88,-98.5 1308.88,-98.5 1314.88,-104.5 1314.88,-110.5 1314.88,-110.5 1314.88,-122.5 1314.88,-122.5 1314.88,-128.5 1308.88,-134.5 1302.88,-134.5"/>
<text text-anchor="middle" x="1270.88" y="-119" font-family="Arial" font-size="10.00">leaderboard.html</text>
<text text-anchor="middle" x="1270.88" y="-107" font-family="Arial" font-size="10.00">Web UI</text>
</g>
<!-- web_webhook&#45;&gt;web_html -->
<g id="edge18" class="edge">
<title>web_webhook&#45;&gt;web_html</title>
<path fill="none" stroke="black" d="M1193.04,-186.91C1207.29,-174.2 1226.97,-156.66 1242.97,-142.39"/>
<polygon fill="black" stroke="black" points="1245.16,-145.13 1250.29,-135.86 1240.5,-139.9 1245.16,-145.13"/>
<text text-anchor="middle" x="1244.38" y="-154.45" font-family="Arial" font-size="9.00">serves</text>
</g>
<!-- web_models -->
<g id="node23" class="node">
<title>web_models</title>
<path fill="lightblue" stroke="black" d="M1198.62,-52C1198.62,-52 1151.12,-52 1151.12,-52 1145.12,-52 1139.12,-46 1139.12,-40 1139.12,-40 1139.12,-28 1139.12,-28 1139.12,-22 1145.12,-16 1151.12,-16 1151.12,-16 1198.62,-16 1198.62,-16 1204.62,-16 1210.62,-22 1210.62,-28 1210.62,-28 1210.62,-40 1210.62,-40 1210.62,-46 1204.62,-52 1198.62,-52"/>
<text text-anchor="middle" x="1174.88" y="-36.5" font-family="Arial" font-size="10.00">models.py</text>
<text text-anchor="middle" x="1174.88" y="-24.5" font-family="Arial" font-size="10.00">Data Models</text>
</g>
<!-- web_db&#45;&gt;web_models -->
<g id="edge17" class="edge">
<title>web_db&#45;&gt;web_models</title>
<path fill="none" stroke="black" d="M1174.09,-98.03C1174.22,-88.01 1174.38,-75.18 1174.52,-63.71"/>
<polygon fill="black" stroke="black" points="1178.02,-63.99 1174.64,-53.95 1171.02,-63.9 1178.02,-63.99"/>
<text text-anchor="middle" x="1183.62" y="-71.95" font-family="Arial" font-size="9.00">uses</text>
</g>
<!-- cicd_dotnet -->
<g id="node25" class="node">
<title>cicd_dotnet</title>
<path fill="lightblue" stroke="black" d="M1390.88,-555.38C1390.88,-555.38 1350.88,-555.38 1350.88,-555.38 1344.88,-555.38 1338.88,-549.38 1338.88,-543.38 1338.88,-543.38 1338.88,-531.38 1338.88,-531.38 1338.88,-525.38 1344.88,-519.38 1350.88,-519.38 1350.88,-519.38 1390.88,-519.38 1390.88,-519.38 1396.88,-519.38 1402.88,-525.38 1402.88,-531.38 1402.88,-531.38 1402.88,-543.38 1402.88,-543.38 1402.88,-549.38 1396.88,-555.38 1390.88,-555.38"/>
<text text-anchor="middle" x="1370.88" y="-539.88" font-family="Arial" font-size="10.00">dotnet.yml</text>
<text text-anchor="middle" x="1370.88" y="-527.88" font-family="Arial" font-size="10.00">.NET Build</text>
</g>
<!-- cicd_docker -->
<g id="node26" class="node">
<title>cicd_docker</title>
<path fill="lightblue" stroke="black" d="M1308.5,-555.38C1308.5,-555.38 1245.25,-555.38 1245.25,-555.38 1239.25,-555.38 1233.25,-549.38 1233.25,-543.38 1233.25,-543.38 1233.25,-531.38 1233.25,-531.38 1233.25,-525.38 1239.25,-519.38 1245.25,-519.38 1245.25,-519.38 1308.5,-519.38 1308.5,-519.38 1314.5,-519.38 1320.5,-525.38 1320.5,-531.38 1320.5,-531.38 1320.5,-543.38 1320.5,-543.38 1320.5,-549.38 1314.5,-555.38 1308.5,-555.38"/>
<text text-anchor="middle" x="1276.88" y="-539.88" font-family="Arial" font-size="10.00">docker&#45;build.yml</text>
<text text-anchor="middle" x="1276.88" y="-527.88" font-family="Arial" font-size="10.00">Docker Images</text>
</g>
<!-- cicd_deploy -->
<g id="node27" class="node">
<title>cicd_deploy</title>
<path fill="lightblue" stroke="black" d="M1202.88,-555.38C1202.88,-555.38 1150.88,-555.38 1150.88,-555.38 1144.88,-555.38 1138.88,-549.38 1138.88,-543.38 1138.88,-543.38 1138.88,-531.38 1138.88,-531.38 1138.88,-525.38 1144.88,-519.38 1150.88,-519.38 1150.88,-519.38 1202.88,-519.38 1202.88,-519.38 1208.88,-519.38 1214.88,-525.38 1214.88,-531.38 1214.88,-531.38 1214.88,-543.38 1214.88,-543.38 1214.88,-549.38 1208.88,-555.38 1202.88,-555.38"/>
<text text-anchor="middle" x="1176.88" y="-539.88" font-family="Arial" font-size="10.00">deploy&#45;fly.yml</text>
<text text-anchor="middle" x="1176.88" y="-527.88" font-family="Arial" font-size="10.00">Fly.io Deploy</text>
</g>
<!-- deployment -->
<g id="node28" class="node">
<title>deployment</title>
<path fill="#50c878" stroke="black" d="M305.5,-328C305.5,-328 176.25,-328 176.25,-328 170.25,-328 164.25,-322 164.25,-316 164.25,-316 164.25,-304 164.25,-304 164.25,-298 170.25,-292 176.25,-292 176.25,-292 305.5,-292 305.5,-292 311.5,-292 317.5,-298 317.5,-304 317.5,-304 317.5,-316 317.5,-316 317.5,-322 311.5,-328 305.5,-328"/>
<text text-anchor="middle" x="240.88" y="-312.5" font-family="Arial" font-size="10.00" fill="white">Fly.io Deployment</text>
<text text-anchor="middle" x="240.88" y="-300.5" font-family="Arial" font-size="10.00" fill="white">stackoverflow&#45;minigame.fly.dev</text>
</g>
<!-- cluster_web&#45;&gt;deployment -->
<g id="edge20" class="edge">
<title>cluster_web&#45;&gt;deployment</title>
<path fill="none" stroke="blue" stroke-dasharray="5,2" d="M212.89,-406.84C218.12,-388.92 226.41,-360.52 232.62,-339.28"/>
<polygon fill="blue" stroke="blue" points="235.95,-340.36 235.39,-329.78 229.23,-338.39 235.95,-340.36"/>
<text text-anchor="middle" x="239.25" y="-370.45" font-family="Arial" font-size="9.00">runs on</text>
</g>
<!-- cluster_cicd&#45;&gt;deployment -->
<g id="edge19" class="edge">
<title>cluster_cicd&#45;&gt;deployment</title>
<path fill="none" stroke="green" stroke-width="2" d="M286.67,-406.84C278.19,-389.08 264.79,-361.04 254.67,-339.87"/>
<polygon fill="green" stroke="green" stroke-width="2" points="257.93,-338.57 250.46,-331.06 251.61,-341.59 257.93,-338.57"/>
<text text-anchor="middle" x="289" y="-370.45" font-family="Arial" font-size="9.00">deploys</text>
</g>
</g>
</svg>
